<svg width="51" height="40" viewBox="0 0 51 40" fill="none" xmlns="http://www.w3.org/2000/svg">
<path d="M11.3451 0C8.49219 0 6.38105 2.5077 6.47559 5.22723C6.56641 7.83987 6.44844 11.2239 5.6002 13.9835C4.74941 16.7511 3.31035 18.5042 0.959961 18.7294V21.2706C3.31035 21.4958 4.74941 23.2489 5.6002 26.0167C6.44844 28.7763 6.56641 32.1599 6.47559 34.7728C6.38105 37.4919 8.49219 40 11.3455 40H40.5785C43.4316 40 45.5422 37.4923 45.4477 34.7728C45.357 32.1601 45.4748 28.7763 46.323 26.0167C47.1744 23.2491 48.6096 21.4956 50.96 21.2706V18.7294C48.6096 18.5042 47.1744 16.7511 46.3232 13.9835C45.4748 11.2243 45.357 7.84006 45.4477 5.22723C45.5422 2.50809 43.4316 0 40.5785 0H11.3451ZM34.8584 24.6225C34.8584 28.3673 32.0771 30.6383 27.4615 30.6383H19.6041C19.3794 30.6381 19.1639 30.5484 19.005 30.3889C18.8462 30.2293 18.7569 30.0128 18.7568 29.7872V10.2128C18.7568 9.98708 18.8461 9.77059 19.005 9.61095C19.164 9.45131 19.3795 9.3616 19.6043 9.36155H27.4166C31.2652 9.36155 33.791 11.4554 33.791 14.6698C33.791 16.926 32.0918 18.9459 29.9271 19.2996V19.4175C32.8742 19.7421 34.8584 21.7916 34.8584 24.6225ZM26.6045 12.0595H22.1246V18.4146H25.898C28.8148 18.4146 30.4234 17.235 30.4234 15.1264C30.4234 13.1507 29.04 12.0595 26.6045 12.0595ZM22.1248 20.9362V27.9395H26.7697C29.8064 27.9395 31.4154 26.7158 31.4154 24.4158C31.4154 22.1154 29.7617 20.9358 26.5744 20.9358L22.1248 20.9362Z" fill="#7E13F8"/>
</svg>
