<svg width="90" height="16" viewBox="0 0 90 16" fill="none" xmlns="http://www.w3.org/2000/svg">
<g clip-path="url(#clip0_422_105)">
<path d="M72.7135 1.33769C74.157 2.21325 75.1194 3.66572 75.1194 5.32749C75.1194 6.42513 74.7355 7.54319 73.9625 8.33963C73.0897 9.24067 71.8048 9.58019 70.6275 9.85843C69.7879 10.055 68.8102 10.175 68.0116 10.4966C67.1389 10.8488 66.2405 11.3952 66.2405 12.4775H75.3012V15.4385H62.8722V12.9037C62.8722 11.3441 63.5991 9.89675 65.1757 8.81699C66.3327 8.02563 67.6969 7.60701 69.0534 7.34153C70.2973 7.09647 71.9047 6.96884 71.9047 5.34536C71.9047 3.76272 69.9134 3.25985 68.5671 3.33897C67.0134 3.42832 65.9103 4.0384 65.0836 4.92673L62.8594 2.91524C64.0444 1.52149 66.2507 0.411087 68.5671 0.393219C70.09 0.377903 71.5566 0.635719 72.7135 1.33769Z" fill="#084FFF"/>
<path d="M76.1996 8.95256C75.7337 9.54984 75.3165 10.3386 75.6928 11.5103C75.9897 12.1714 76.5093 12.8198 77.9452 12.8198H84.152V15.4414H87.3695V12.8198H90.0004V10.1599H87.3695C87.3695 10.1599 87.3695 2.55305 87.3695 2.54284C87.3695 1.39671 86.476 0.549223 85.2754 0.436907C84.2798 0.342459 83.2078 0.692171 82.5296 1.51157L76.1996 8.95256ZM84.152 3.73493V10.1599H78.6695L84.152 3.73493Z" fill="#084FFF"/>
<path d="M44.1079 7.00231H35.8534C35.8534 7.00231 35.8534 5.53965 35.8534 5.28949C35.8534 4.14846 36.3039 3.54603 37.4967 3.54603H44.6914V0.584961H36.9464C34.1283 0.584961 32.6387 2.24419 32.6387 4.7177V15.4414H35.856V9.66984H44.1105V7.00231H44.1079Z" fill="black"/>
<path d="M61.285 7.01464C61.1008 5.40137 60.251 3.70131 59.153 2.61643C57.7376 1.22013 55.8256 0.336914 53.673 0.336914C49.4397 0.336914 46.0176 3.77788 46.0176 7.99741C46.0176 10.7466 47.4867 13.1461 49.6725 14.4939C50.8883 15.252 52.3012 15.6222 53.691 15.6222C55.7924 15.6222 57.776 14.7517 59.1683 13.3273L56.8878 11.3312C56.0688 12.1123 54.9016 12.6203 53.6808 12.6228C52.4675 12.6203 51.2134 12.1123 50.3765 11.2546C49.9106 10.7772 49.5676 10.2361 49.3424 9.66684H61.152C61.1494 9.6694 61.4617 8.55644 61.285 7.01464ZM49.13 7.01209C49.3142 6.17482 49.7314 5.38095 50.3713 4.72747C51.8712 3.19844 54.2285 2.95848 55.9485 3.92594C57.2078 4.63557 57.9603 5.80979 58.2265 7.01209H49.13Z" fill="black"/>
<path d="M8.0343 12.8755C5.33402 12.8705 3.14819 10.693 3.14307 8.00256C3.14819 5.31206 5.33402 3.13466 8.0343 3.12954C9.32175 3.1321 10.4914 3.62986 11.3668 4.43906L13.7343 2.3663C12.2805 0.906192 10.2636 0 8.0343 0C3.59611 0 0.00255951 3.58137 0 8C0 12.4186 3.59611 16 8.0343 16C10.2483 16 12.2498 15.1091 13.7011 13.6669L11.5382 11.3925C10.6527 12.3063 9.40878 12.8755 8.0343 12.8755Z" fill="black"/>
<path d="M26.2602 0.597748V2.16252C25.3183 1.01383 23.4882 0.360352 21.8399 0.360352C17.6065 0.360352 14.1768 3.78345 14.1768 8.00555C14.1768 12.197 17.5809 15.5996 21.7401 15.5996C23.3858 15.5996 25.1417 15.1402 26.2602 13.8154V15.4439H29.4903V0.597748H26.2602ZM21.8322 12.6207C19.2625 12.6207 17.1791 10.5429 17.1791 7.98001C17.1791 5.41715 19.2625 3.33929 21.8322 3.33929C24.402 3.33929 26.4854 5.41715 26.4854 7.98001C26.4854 10.5429 24.402 12.6207 21.8322 12.6207Z" fill="black"/>
</g>
<defs>
<clipPath id="clip0_422_105">
<rect width="90" height="16" fill="white"/>
</clipPath>
</defs>
</svg>
