<svg width="41" height="40" viewBox="0 0 41 40" fill="none" xmlns="http://www.w3.org/2000/svg">
<path d="M28.2062 1.82977H25.8987L28.2984 4.43383V5.67352H23.3559V4.22195H25.7553L23.3559 1.61789V0.376953H28.2062V1.82977ZM22.3759 1.82977H20.0684L22.4681 4.43383V5.67352H17.5253V4.22195H19.925L17.5253 1.61789V0.376953H22.3759V1.82977ZM16.6028 1.88914H14.1128V4.16133H16.6028V5.67352H12.3428V0.376953H16.6028V1.88914Z" fill="#131313"/>
<path d="M8.94926 36.4709L6.41895 8.0918H34.2211L31.6886 36.4662L20.303 39.623L8.94926 36.4709Z" fill="#1572B6"/>
<path d="M20.3203 37.2099L29.52 34.6593L31.6844 10.4121H20.3203V37.2099Z" fill="#33A9DC"/>
<path d="M20.3203 20.6941H24.9259L25.2444 17.13H20.3203V13.6494H29.0481L28.9647 14.5832L28.1094 24.1744H20.3203V20.6941Z" fill="white"/>
<path d="M20.3411 29.7335L20.3258 29.7379L16.4496 28.691L16.2014 25.915H12.708L13.1958 31.38L20.3252 33.3591L20.3414 33.3544L20.3411 29.7335Z" fill="#EBEBEB"/>
<path d="M24.6304 24.0273L24.211 28.6886L20.3291 29.7364V33.3577L27.4644 31.3802L27.5169 30.792L28.1225 24.0273H24.6304Z" fill="white"/>
<path d="M20.3323 13.6494V17.1297H11.9252L11.8552 16.3475L11.6967 14.5832L11.6133 13.6494H20.3323ZM20.3202 20.6944V24.175H16.493L16.4233 23.3929L16.2645 21.6282L16.1811 20.6944H20.3202Z" fill="#EBEBEB"/>
</svg>
