<svg width="41" height="40" viewBox="0 0 41 40" fill="none" xmlns="http://www.w3.org/2000/svg">
<path d="M9.02516 36.3609L6.51172 8.16992H34.1298L31.6139 36.3565L20.3039 39.4918L9.02516 36.3609Z" fill="#E44D26"/>
<path d="M20.3203 37.0946L29.4591 34.5609L31.6094 10.4746H20.3203V37.0946Z" fill="#F16529"/>
<path d="M20.3201 20.9311H15.7448L15.4291 17.3901H20.3201V13.9326H11.6504L11.7329 14.8604L12.5829 24.3882H20.3201V20.9311ZM20.3201 29.9101L20.3048 29.9142L16.4545 28.8742L16.2082 26.117H12.7373L13.2216 31.5457L20.3041 33.512L20.3201 33.5073V29.9101Z" fill="#EBEBEB"/>
<path d="M9.08105 0.508789H10.8379V2.24504H12.4454V0.508789H14.2026V5.76566H12.4454V4.00535H10.8382V5.76566H9.08105V0.508789ZM16.5129 2.25223H14.9661V0.508789H19.8176V2.25223H18.2701V5.76566H16.5129V2.25223ZM20.5876 0.508789H22.4195L23.5467 2.35598L24.6726 0.508789H26.5054V5.76566H24.7551V3.16004L23.5467 5.0291H23.5161L22.3067 3.16004V5.76566H20.5873V0.508789H20.5876ZM27.3801 0.508789H29.1376V4.02816H31.6086V5.76598H27.3801V0.508789Z" fill="black"/>
<path d="M20.3086 20.9311V24.3882H24.5661L24.1648 28.8723L20.3086 29.9132V33.5101L27.3967 31.5457L27.4486 30.9614L28.2611 21.8592L28.3455 20.9311H27.4136H20.3086ZM20.3086 13.9326V17.3901H28.6602L28.7292 16.6129L28.887 14.8604L28.9698 13.9326H20.3086Z" fill="white"/>
</svg>
