<svg width="41" height="40" viewBox="0 0 41 40" fill="none" xmlns="http://www.w3.org/2000/svg">
<path d="M34.16 0H6.8C3.04446 0 0 3.04446 0 6.8V33.136C0 36.8915 3.04446 39.936 6.8 39.936H34.16C37.9155 39.936 40.96 36.8915 40.96 33.136V6.8C40.96 3.04446 37.9155 0 34.16 0Z" fill="#49021F"/>
<path d="M14.8748 10.4472V27.9502C14.8748 28.1335 14.7924 28.2251 14.6275 28.2251H11.3027C11.1559 28.2251 11.0827 28.1335 11.083 27.9502V10.4472C11.083 10.3007 11.1654 10.2274 11.3302 10.2273H14.655C14.683 10.2234 14.7115 10.2256 14.7385 10.2337C14.7655 10.2419 14.7904 10.2558 14.8115 10.2746C14.8326 10.2934 14.8494 10.3165 14.8606 10.3424C14.8718 10.3684 14.8773 10.3964 14.8766 10.4246L14.8748 10.4472ZM24.8886 28.4981L24.7117 28.4998C23.447 28.5191 22.1939 28.2563 21.0435 27.7305C19.9718 27.2345 19.0759 26.4249 18.4744 25.4086C17.8666 24.3991 17.5553 23.141 17.5406 21.6342L17.5401 21.5206C17.5298 20.2595 17.8521 19.018 18.4745 17.9211C19.0984 16.8338 20.0083 15.9383 21.1054 15.3318L21.1947 15.2832C22.3851 14.6238 23.8231 14.2941 25.5086 14.2941L25.5441 14.2942L25.623 14.296L25.7123 14.2995L25.812 14.3046L25.9219 14.3115L26.0421 14.3203L26.3136 14.3425L26.3878 14.3489V8.93614C26.3878 8.80804 26.4427 8.74388 26.5526 8.74366H30.0148C30.0372 8.74045 30.0601 8.7425 30.0815 8.74965C30.103 8.75679 30.1225 8.76884 30.1385 8.78483C30.1545 8.80083 30.1665 8.82033 30.1737 8.84178C30.1808 8.86324 30.1829 8.88607 30.1796 8.90846V25.1477C30.1807 25.4869 30.1945 25.8261 30.2209 26.1643L30.2469 26.5185L30.2697 26.8483L30.2896 27.1534C30.293 27.2105 30.2791 27.2673 30.2496 27.3163C30.2202 27.3654 30.1767 27.4044 30.1248 27.4283C29.2316 27.8007 28.3013 28.077 27.3496 28.2525C26.5375 28.4025 25.7144 28.4846 24.8888 28.4981M26.388 25.0926V17.5913C26.2395 17.5511 26.0878 17.5235 25.9347 17.5089C25.7475 17.49 25.5595 17.4808 25.3713 17.4814C24.7045 17.4749 24.0456 17.6254 23.448 17.9211C22.8659 18.2106 22.3689 18.6461 22.0054 19.1851C21.6297 19.7345 21.4419 20.4581 21.4421 21.3558C21.4287 21.9547 21.5266 22.5509 21.7305 23.1142C21.8966 23.5681 22.1591 23.9806 22.5 24.3233C22.8262 24.6386 23.2213 24.8738 23.6541 25.0102C24.1111 25.1582 24.5887 25.2324 25.0691 25.2302C25.3254 25.2302 25.5635 25.221 25.7835 25.2025C25.9589 25.1893 26.1329 25.1604 26.3032 25.1161L26.388 25.0926Z" fill="#FF3366"/>
</svg>
