<svg width="41" height="40" viewBox="0 0 41 40" fill="none" xmlns="http://www.w3.org/2000/svg">
<path d="M8.99463 6.38168C6.69713 9.68324 6.98307 13.9792 8.73838 17.4879L8.86682 17.7373L8.949 17.8954L9.00025 17.9864L9.09182 18.1501C9.14619 18.246 9.20203 18.3417 9.25932 18.4373L9.35494 18.5948C9.41828 18.6967 9.48307 18.798 9.54932 18.8989L9.63213 19.0267C9.72359 19.1633 9.81744 19.2989 9.91369 19.4332L9.92182 19.4436L9.96932 19.5076C10.0529 19.6226 10.1384 19.7365 10.2259 19.8492L10.3224 19.972C10.4004 20.0697 10.4794 20.167 10.5596 20.2639L10.6503 20.372C10.7581 20.4989 10.8684 20.6257 10.9806 20.7495L10.9871 20.7564L10.9999 20.7704C11.1096 20.8901 11.2218 21.0073 11.3359 21.1245L11.4434 21.2329C11.5317 21.3215 11.6211 21.4091 11.7115 21.4957L11.8212 21.6001C11.9418 21.7141 12.0643 21.8255 12.1887 21.9345L12.1943 21.9395L12.2584 21.9939C12.3682 22.0891 12.4794 22.183 12.5921 22.2757L12.7303 22.3861C12.8221 22.4596 12.9148 22.5321 13.0084 22.6036L13.1574 22.7164C13.2606 22.7922 13.3646 22.8669 13.4696 22.9404L13.5831 23.0211L13.6146 23.0436C13.714 23.1123 13.8162 23.1782 13.9178 23.2442L14.049 23.3317C14.2053 23.4301 14.3637 23.5279 14.5237 23.6223L14.6549 23.6964C14.7727 23.7643 14.8914 23.8308 15.0112 23.8961L15.2084 23.9979L15.4634 24.1304L15.5221 24.1589L15.6265 24.2092C15.7598 24.2731 15.8945 24.3355 16.0306 24.3964L16.1159 24.4345C16.2715 24.5026 16.4286 24.568 16.5871 24.6307L16.7021 24.6757C16.849 24.7328 16.9972 24.7877 17.1468 24.8404L17.2028 24.8598C17.3665 24.9173 17.5321 24.9701 17.6987 25.0223L17.8184 25.0579C17.9878 25.1092 18.1556 25.1698 18.3303 25.2023C29.4406 27.2282 32.6678 18.5261 32.6678 18.5261C29.9571 22.0573 25.1462 22.9886 20.5878 21.9517C20.4149 21.9126 20.2474 21.8586 20.079 21.8092L19.9521 21.7704C19.7878 21.7203 19.6245 21.6672 19.4621 21.6111L19.3949 21.587C19.2502 21.5357 19.1062 21.4822 18.9631 21.4267L18.8418 21.3792C18.6849 21.3173 18.5295 21.2527 18.3756 21.1854L18.2824 21.1439C18.1505 21.0846 18.0194 21.0236 17.889 20.9611L17.7753 20.9064C17.6731 20.8567 17.5721 20.8039 17.4709 20.7517L17.2681 20.6451C17.1449 20.5793 17.0234 20.5112 16.9034 20.4407L16.7803 20.3723C16.6204 20.2777 16.4621 20.1806 16.3053 20.0811L16.1771 19.9957C16.0633 19.9226 15.9507 19.8477 15.8393 19.7711L15.7303 19.6945C15.6229 19.6189 15.5164 19.542 15.4109 19.4639L15.2693 19.3567C15.1722 19.2827 15.0762 19.2076 14.9812 19.1314L14.8528 19.0282C14.7315 18.9291 14.6118 18.8281 14.4937 18.7254L14.4543 18.6926C14.3268 18.5801 14.2009 18.4657 14.0768 18.3495L13.9706 18.247C13.8785 18.16 13.7881 18.0714 13.6993 17.9811L13.5931 17.8748C13.4799 17.7592 13.369 17.6419 13.2603 17.5229L13.2437 17.5051C13.1287 17.3793 13.0162 17.2513 12.9062 17.1211L12.8178 17.0161C12.7354 16.9171 12.6545 16.817 12.5749 16.7157L12.4859 16.6048C12.3906 16.4817 12.297 16.3572 12.2053 16.2314C9.67463 12.7792 8.76526 8.01793 10.7881 4.10793M16.1259 3.5998C14.4646 5.99043 14.5546 9.19137 15.8509 11.7195C16.068 12.1444 16.3134 12.5542 16.5856 12.9461C16.8343 13.3032 17.1106 13.7276 17.4409 14.0142C17.5606 14.1461 17.6859 14.2748 17.8137 14.4011L17.9118 14.4982C18.0356 14.6189 18.1624 14.7368 18.2924 14.852L18.3081 14.8654L18.3118 14.8692C18.4562 14.9957 18.6053 15.1173 18.7565 15.2373L18.8574 15.3161C19.0093 15.4323 19.164 15.5467 19.3228 15.6557L19.3362 15.6661L19.5487 15.8057L19.6493 15.8723C19.7627 15.9452 19.8777 16.0156 19.9943 16.0836L20.0431 16.1123C20.1439 16.1702 20.2455 16.227 20.3478 16.2826L20.4562 16.3389L20.6693 16.4495L20.7015 16.4642C20.8475 16.5365 20.9959 16.6055 21.1465 16.6714L21.2446 16.712C21.3653 16.7632 21.4868 16.8125 21.6093 16.8598L21.7656 16.9173C21.8768 16.9586 21.9881 16.9964 22.1006 17.0339L22.2518 17.0823C22.4115 17.1317 22.5696 17.1945 22.7359 17.2223C31.314 18.6432 33.2943 12.0386 33.2943 12.0386C31.5093 14.6098 28.0521 15.8364 24.3631 14.8789C24.2 14.8358 24.038 14.7891 23.8771 14.7386L23.7312 14.6914C23.6172 14.6547 23.504 14.6157 23.3915 14.5745L23.2381 14.5173C23.1153 14.47 22.9933 14.4207 22.8721 14.3695L22.7737 14.3279C22.6229 14.2621 22.4737 14.1927 22.3262 14.1198L22.1018 14.0057L21.9724 13.9392C21.8766 13.8871 21.7819 13.8336 21.6884 13.7786L21.6206 13.7401C21.5045 13.6725 21.3899 13.6025 21.2768 13.5301L21.1731 13.4611L20.9506 13.3136C20.7932 13.2044 20.6386 13.0913 20.4868 12.9745L20.3824 12.892C18.7678 11.6173 17.4878 9.8748 16.8793 7.89918C16.2415 5.85012 16.379 3.55012 17.484 1.68324M22.1237 1.52137C21.1443 2.96262 21.0481 4.75293 21.7278 6.3448C22.4443 8.03449 23.9128 9.3598 25.6268 9.98855L25.8399 10.062L25.9337 10.092C26.0346 10.1239 26.1349 10.1607 26.2393 10.1801C30.9759 11.0954 32.2606 7.7498 32.6024 7.25699C31.4771 8.8773 29.5859 9.26637 27.2653 8.70293C27.0754 8.65441 26.8881 8.59653 26.704 8.52949C26.477 8.44895 26.2544 8.35653 26.0371 8.25262C25.6247 8.05441 25.2331 7.81551 24.8681 7.53949C22.7915 5.96387 21.5018 2.95855 22.8568 0.510742" fill="#0868AC"/>
<path d="M21.058 30.0922H19.7373C19.7 30.0938 19.6642 30.1074 19.6352 30.1308C19.6061 30.1543 19.5853 30.1864 19.5758 30.2225L19.107 32.3913L18.6383 34.56C18.6291 34.5962 18.6084 34.6285 18.5793 34.652C18.5503 34.6754 18.5144 34.6889 18.477 34.6903H17.5423C16.6177 34.6903 16.7245 34.0506 16.9139 33.1744L16.9195 33.1478L16.9402 33.0372L16.9439 33.0166L16.9861 32.7916L17.0314 32.5506L17.0795 32.3053L17.2927 31.2641L17.5061 30.2228C17.5102 30.2069 17.5105 30.1903 17.5069 30.1742C17.5034 30.1582 17.4962 30.1432 17.4858 30.1305C17.4754 30.1178 17.4622 30.1076 17.4473 30.1009C17.4323 30.0942 17.4159 30.0911 17.3995 30.0919H16.0442C16.0069 30.0932 15.971 30.1067 15.942 30.1303C15.913 30.1539 15.8925 30.1862 15.8836 30.2225L15.592 31.605L15.3008 32.9878L15.3002 32.9897L15.2733 33.1184C14.9377 34.6506 15.0264 36.1122 16.8508 36.1581L16.9039 36.1591H19.7673C19.8047 36.1577 19.8406 36.1442 19.8696 36.1207C19.8987 36.0972 19.9194 36.065 19.9286 36.0288L20.5461 33.1259L21.1636 30.2228C21.1789 30.1509 21.1314 30.0925 21.058 30.0922ZM6.91547 30.0769H5.46546C5.42798 30.0782 5.39192 30.0916 5.36261 30.115C5.33329 30.1384 5.31227 30.1706 5.30265 30.2069L5.16515 30.8137L5.02765 31.4206C5.01172 31.4922 5.05828 31.5506 5.13172 31.5506H6.59296C6.63033 31.5491 6.66621 31.5356 6.69534 31.5121C6.72447 31.4886 6.74532 31.4565 6.75484 31.4203L6.88765 30.8137L7.02046 30.2072C7.03578 30.1356 6.9889 30.0769 6.91547 30.0769ZM6.49484 31.9656H5.03328C4.99579 31.967 4.95973 31.9804 4.93042 32.0038C4.9011 32.0272 4.88009 32.0594 4.87047 32.0956L4.66515 33.005L4.46015 33.9141L4.40297 34.1747L4.20578 35.1028L4.0089 36.0313C3.99359 36.1028 3.96203 36.2184 3.93859 36.2878C3.93859 36.2878 3.66547 37.1003 3.2064 37.0909L3.1489 37.0897L2.75172 37.0825C2.71443 37.0835 2.67812 37.0964 2.64866 37.1192C2.61921 37.1421 2.59783 37.1738 2.58765 37.2097L2.43609 37.8469L2.28484 38.4838C2.26765 38.555 2.3139 38.6138 2.38672 38.615C2.64703 38.6181 3.23015 38.6247 3.58297 38.6247C4.72953 38.6247 5.33421 37.9894 5.7214 36.1613L6.17484 34.0631L6.60015 32.0953C6.61546 32.0244 6.56797 31.9656 6.49484 31.9656ZM33.4064 31.4738L33.3458 31.2234L33.2861 30.9672L33.2558 30.8378C33.137 30.3763 32.7886 30.1103 32.0317 30.1103L30.8536 30.1091L29.7686 30.1075H28.5477C28.5103 30.1088 28.4744 30.1222 28.4454 30.1457C28.4163 30.1692 28.3957 30.2016 28.3867 30.2378L28.3327 30.4928L28.2689 30.7941L28.2511 30.8787L27.7014 33.4538L27.1795 35.8981C27.1639 35.97 27.1589 36.0581 27.1677 36.0938C27.1764 36.1297 27.3173 36.1591 27.3905 36.1591H28.4917C28.5652 36.1591 28.658 36.1459 28.698 36.1297C28.738 36.1134 28.797 35.9694 28.8117 35.8978L29.0073 34.9294L29.2033 33.9606L29.2036 33.9591L29.2298 33.83L29.4673 32.7175L29.677 31.735C29.6863 31.6989 29.7069 31.6667 29.7359 31.6432C29.7649 31.6197 29.8007 31.6062 29.838 31.6047L33.3033 31.6031C33.3767 31.6038 33.423 31.5453 33.4064 31.4738ZM37.8673 29.2113L37.6005 29.2122H36.4914C36.4507 29.2144 36.4111 29.2254 36.3751 29.2444C36.3391 29.2635 36.3077 29.2901 36.283 29.3225L33.8302 32.9156C33.7889 32.9763 33.7417 32.9675 33.7255 32.8963L33.5448 32.1047C33.5352 32.0684 33.5141 32.0361 33.4848 32.0127C33.4554 31.9893 33.4193 31.976 33.3817 31.9747H31.8052C31.7317 31.9747 31.6883 32.0322 31.7083 32.1025L32.4148 34.5778C32.4348 34.6484 32.4364 34.7641 32.4183 34.8353L32.1105 36.0331C32.092 36.1044 32.137 36.1622 32.2105 36.1622H33.7689C33.8066 36.1607 33.8429 36.1474 33.8727 36.1243C33.9025 36.1011 33.9243 36.0693 33.9352 36.0331L34.2433 34.8353C34.2676 34.7508 34.3059 34.6711 34.3567 34.5994L38.3386 29.3147C38.383 29.2559 38.3589 29.2081 38.2858 29.2088L37.8673 29.2113ZM25.3405 32.3109V32.3097C25.3351 32.3474 25.3164 32.382 25.2878 32.4073C25.2593 32.4325 25.2226 32.4468 25.1845 32.4475H23.1855C23.1161 32.4475 23.0811 32.4006 23.0914 32.3425L23.0933 32.3378L23.092 32.3384L23.093 32.3319L23.102 32.2978C23.293 31.7903 23.6817 31.4572 24.4127 31.4572C25.2358 31.4569 25.3964 31.8587 25.3405 32.3109ZM24.7539 30.0034C22.188 30.0034 21.5798 31.5609 21.2386 33.1331C20.8977 34.7356 20.9267 36.2334 23.5823 36.2334H23.9042L23.9842 36.2331H24.003L24.3217 36.2322H24.3273C25.0286 36.2294 25.732 36.2241 26.0167 36.2219C26.0539 36.2201 26.0894 36.2064 26.1181 36.1828C26.1468 36.1591 26.167 36.1268 26.1758 36.0906L26.2833 35.5653L26.3042 35.4631L26.4323 34.8363C26.4364 34.8204 26.4367 34.8037 26.4332 34.7877C26.4297 34.7717 26.4224 34.7567 26.4121 34.744C26.4017 34.7313 26.3885 34.7212 26.3735 34.7145C26.3585 34.7079 26.3422 34.7048 26.3258 34.7056H23.9386C22.9889 34.7056 22.707 34.4534 22.8111 33.7116H26.627L26.6267 33.7119L26.6292 33.7116C26.6594 33.7104 26.6887 33.7004 26.7133 33.683C26.738 33.6655 26.7571 33.6412 26.7683 33.6131L26.7773 33.58L26.777 33.5803C27.3436 31.4431 27.1811 30.0038 24.7539 30.0034ZM12.6258 32.3028L12.5895 32.4306L12.3014 33.4522L12.0133 34.4731C12.0013 34.5092 11.9787 34.5408 11.9484 34.5638C11.9181 34.5867 11.8816 34.5999 11.8436 34.6016H10.3186C9.16172 34.6016 8.87984 33.6966 9.16172 32.3622C9.44328 30.9972 9.99547 30.1487 11.1342 30.0628C12.6905 29.9453 13.0017 31.0397 12.6258 32.3028ZM13.672 34.5231C13.672 34.5231 14.3911 32.7769 14.5542 31.7688C14.777 30.4191 14.1011 28.4609 11.4905 28.4609C8.89484 28.4609 7.76734 30.33 7.33734 32.3622C6.90734 34.4091 7.47078 36.2038 10.0517 36.1891L12.088 36.1816L13.9908 36.1747C14.0285 36.1728 14.0647 36.1594 14.0946 36.1363C14.1244 36.1131 14.1464 36.0814 14.1577 36.0453L14.4892 34.7809C14.5077 34.7097 14.463 34.6516 14.3895 34.6509L14.0717 34.6491L13.7539 34.6472C13.6917 34.6469 13.6561 34.6063 13.6636 34.5528L13.672 34.5231ZM26.522 33.3541C26.522 33.3656 26.5198 33.3769 26.5154 33.3876C26.511 33.3982 26.5046 33.4078 26.4965 33.416C26.4884 33.4241 26.4788 33.4306 26.4682 33.435C26.4575 33.4394 26.4462 33.4417 26.4347 33.4417C26.4232 33.4417 26.4118 33.4395 26.4012 33.4351C26.3906 33.4307 26.3809 33.4243 26.3728 33.4162C26.3646 33.4081 26.3582 33.3985 26.3537 33.3878C26.3493 33.3772 26.347 33.3659 26.347 33.3544C26.347 33.3312 26.3562 33.3089 26.3725 33.2925C26.3889 33.276 26.4112 33.2668 26.4344 33.2667C26.4576 33.2667 26.4798 33.2759 26.4963 33.2922C26.5127 33.3086 26.522 33.3309 26.522 33.3541Z" fill="#131B28"/>
</svg>
