<svg width="41" height="40" viewBox="0 0 41 40" fill="none" xmlns="http://www.w3.org/2000/svg">
<g clip-path="url(#clip0_422_77)">
<path d="M30.9453 0H9.69531C4.51764 0 0.320312 4.19733 0.320312 9.375V30.625C0.320312 35.8027 4.51764 40 9.69531 40H30.9453C36.123 40 40.3203 35.8027 40.3203 30.625V9.375C40.3203 4.19733 36.123 0 30.9453 0Z" fill="#F0DB4F"/>
<path d="M10.838 33.4264L13.899 31.5739C14.4896 32.6209 15.0268 33.5069 16.3154 33.5069C17.5505 33.5069 18.3293 33.0238 18.3293 31.1444V18.3634H22.0884V31.1975C22.0884 35.0908 19.8062 36.863 16.4765 36.863C13.4695 36.863 11.724 35.3056 10.8379 33.4261M24.1301 33.0236L27.1907 31.2516C27.9965 32.5673 29.0437 33.5339 30.8962 33.5339C32.4538 33.5339 33.447 32.7552 33.447 31.6811C33.447 30.3923 32.4266 29.9358 30.7082 29.1842L29.7687 28.7813C27.0566 27.6269 25.2576 26.1769 25.2576 23.1159C25.2576 20.2966 27.4057 18.1484 30.7621 18.1484C33.1518 18.1484 34.8702 18.9809 36.1052 21.1558L33.1785 23.0353C32.534 21.8808 31.8362 21.4244 30.7621 21.4244C29.6612 21.4244 28.963 22.1225 28.963 23.0353C28.963 24.163 29.6612 24.6195 31.2721 25.3178L32.2118 25.7205C35.407 27.09 37.206 28.4859 37.206 31.6273C37.206 35.0108 34.5479 36.8633 30.9768 36.8633C27.4863 36.8633 25.2309 35.1986 24.1301 33.0236Z" fill="#323330"/>
</g>
<defs>
<clipPath id="clip0_422_77">
<rect width="40" height="40" fill="white" transform="translate(0.320312)"/>
</clipPath>
</defs>
</svg>
