<svg width="41" height="40" viewBox="0 0 41 40" fill="none" xmlns="http://www.w3.org/2000/svg">
<g clip-path="url(#clip0_422_78)">
<path d="M30.9214 3.23293C36.6248 6.75605 40.4255 13.0645 40.4255 20.2607C40.4255 31.3064 31.4711 40.2607 20.4255 40.2607C18.087 40.2637 15.7662 39.8551 13.5692 39.0539L13.3411 38.9689L13.713 38.8492L14.1911 38.6926L14.427 38.6136L14.6608 38.5348L15.122 38.3757L15.5748 38.2157L16.0189 38.0548L16.4548 37.8929L16.6698 37.8114L17.093 37.6476C17.5398 37.4726 17.9724 37.2956 18.3908 37.1167L18.7017 36.982L19.083 36.8129C19.2484 36.7383 19.4133 36.6625 19.5777 36.5854L19.8195 36.4711L20.1755 36.2982L20.3502 36.2117L20.5227 36.1245L20.8617 35.9495C23.7073 34.457 25.6405 32.8354 26.667 31.0576C28.842 27.2907 26.9423 23.2654 21.4898 19.1617L21.0461 18.8292L20.7767 18.6223L20.5152 18.4173L20.2611 18.2136L20.0152 18.0117L19.8952 17.9114L19.7767 17.8114L19.5461 17.6123L19.3783 17.4642L19.2148 17.3167L19.0036 17.1217L18.7998 16.9279L18.6036 16.7361L18.5086 16.6407L18.4152 16.5454L18.2342 16.3564C16.0789 14.0651 15.5977 12.1039 16.5761 10.4089C17.0742 9.54637 17.9377 8.69824 19.1648 7.8723L19.3139 7.77324L19.5486 7.62231C19.6548 7.55543 19.7634 7.48855 19.8742 7.42168L20.0423 7.32168L20.3017 7.1723L20.5689 7.02355L20.7748 6.91231L20.9852 6.80137L21.273 6.65387C21.4972 6.54089 21.7229 6.43098 21.9502 6.32418L22.1852 6.21481L22.5055 6.0698L22.6686 5.9973L23.0011 5.85356L23.1705 5.78168L23.5155 5.63824L23.6905 5.56699L24.0477 5.42481L24.2292 5.35387L24.5986 5.21262L24.9758 5.07199L25.1673 5.0023L25.557 4.86262L25.9545 4.72387L26.3605 4.58605L26.5664 4.5173L26.9842 4.38043L27.4105 4.24418L27.8445 4.10887L28.2867 3.97418L28.7373 3.84043L29.3117 3.67418L29.8989 3.50918L30.6202 3.31293L30.9214 3.23293ZM20.4255 0.260742C22.8577 0.260742 25.1886 0.695117 27.3445 1.4898L27.5748 1.57637L27.4289 1.62074L26.7164 1.84043L26.4833 1.91418L26.023 2.0623L25.5711 2.21199L25.1277 2.36262L24.6927 2.51449L24.2661 2.66762L24.0558 2.74449L23.5395 2.93824L23.0364 3.13418L22.643 3.29199L22.4495 3.37137L22.0689 3.53137C18.1792 5.18887 15.6302 7.04762 14.4114 9.15887C12.2836 12.8442 14.2136 16.817 19.6664 20.9195L20.1102 21.2523L20.3795 21.4592L20.6411 21.6645L20.7692 21.7667L21.0189 21.9698L21.2008 22.1211L21.3789 22.2717L21.6089 22.4714L21.7214 22.5704L21.9398 22.7676C22.059 22.877 22.1746 22.9856 22.2867 23.0936L22.4523 23.2548L22.6908 23.4954L22.9173 23.7332C25.0633 26.0404 25.522 28.0411 24.5023 29.8076C23.8423 30.9507 22.5823 32.0757 20.7255 33.1679L20.5548 33.2673L20.2786 33.4239L19.9942 33.5798C19.831 33.6679 19.6668 33.7542 19.5017 33.8389L19.247 33.9676L18.9336 34.122L18.612 34.2757L18.2823 34.4292L18.1145 34.5057L17.7723 34.6579L17.4223 34.8101L17.0639 34.9614L16.8814 35.037L16.5108 35.1873L16.3223 35.2623L16.1317 35.3373L15.7445 35.4867L15.3492 35.6354L14.9458 35.7836L14.5339 35.9311L14.1142 36.0779L13.9011 36.1511L13.4689 36.297L13.2495 36.3695L12.8052 36.5145L12.3523 36.6586L11.7752 36.8379L11.1848 37.0164L10.7036 37.1579L10.0317 37.3514C4.27172 33.8404 0.425781 27.4998 0.425781 20.2607C0.425781 9.21512 9.37984 0.260742 20.4255 0.260742Z" fill="#0080FF"/>
</g>
<defs>
<clipPath id="clip0_422_78">
<rect width="40" height="40" fill="white" transform="translate(0.320312)"/>
</clipPath>
</defs>
</svg>
