<svg width="41" height="40" viewBox="0 0 41 40" fill="none" xmlns="http://www.w3.org/2000/svg">
<g clip-path="url(#clip0_422_81)">
<mask id="mask0_422_81" style="mask-type:luminance" maskUnits="userSpaceOnUse" x="0" y="0" width="41" height="40">
<path d="M28.4798 39.7801C28.7993 39.9047 29.1411 39.9622 29.4838 39.9491C29.8265 39.9359 30.1629 39.8523 30.4719 39.7036L38.7398 35.7253C39.1656 35.5203 39.5249 35.1992 39.7763 34.799C40.0277 34.3989 40.1611 33.9358 40.161 33.4632V6.48749C40.1611 6.01492 40.0277 5.55193 39.7763 5.15179C39.5248 4.75165 39.1656 4.43061 38.7398 4.2256L30.472 0.247177C30.0049 0.0224443 29.4794 -0.0515353 28.9683 0.0354738C28.4572 0.122483 27.9858 0.36618 27.6193 0.732846L11.7914 15.173L4.89693 9.93962C4.58593 9.70355 4.20211 9.58379 3.81205 9.60114C3.42199 9.61849 3.05031 9.77183 2.76149 10.0346L0.550312 12.0461C-0.178822 12.7092 -0.179609 13.8563 0.548422 14.5206L6.52748 19.9754L0.548422 25.43C-0.179609 26.0944 -0.178822 27.2414 0.550312 27.9047L2.76149 29.916C3.05029 30.1788 3.42196 30.3321 3.81202 30.3495C4.20208 30.3669 4.58591 30.2472 4.89693 30.0111L11.7914 24.7776L27.6193 39.2177C27.864 39.4629 28.157 39.6544 28.4798 39.7801M30.1276 10.859L18.1179 19.9754L30.1276 29.0916V10.859Z" fill="white"/>
</mask>
<g mask="url(#mask0_422_81)">
<path d="M38.7643 4.23156L30.49 0.247627C30.0227 0.0226425 29.497 -0.0515331 28.9857 0.0353644C28.4744 0.122262 28.0027 0.365936 27.636 0.732666L0.548718 25.4298C-0.179786 26.0942 -0.178841 27.2412 0.550607 27.9045L2.76321 29.9158C3.05226 30.1786 3.42416 30.332 3.81445 30.3494C4.20473 30.3668 4.5888 30.247 4.90006 30.0109L37.5193 5.26511C38.6136 4.43503 40.1854 5.2155 40.1854 6.58904V6.49298C40.1854 6.0205 40.052 5.55763 39.8006 5.15758C39.5492 4.75754 39.19 4.43656 38.7643 4.23156Z" fill="#0065A9"/>
</g>
<mask id="mask1_422_81" style="mask-type:luminance" maskUnits="userSpaceOnUse" x="0" y="0" width="41" height="40">
<path d="M28.4798 39.7801C28.7993 39.9047 29.1411 39.9622 29.4838 39.9491C29.8265 39.9359 30.1629 39.8523 30.4719 39.7036L38.7398 35.7253C39.1656 35.5203 39.5249 35.1992 39.7763 34.799C40.0277 34.3989 40.1611 33.9358 40.161 33.4632V6.48749C40.1611 6.01492 40.0277 5.55193 39.7763 5.15179C39.5248 4.75165 39.1656 4.43061 38.7398 4.2256L30.472 0.247177C30.0049 0.0224443 29.4794 -0.0515353 28.9683 0.0354738C28.4572 0.122483 27.9858 0.36618 27.6193 0.732846L11.7914 15.173L4.89693 9.93962C4.58593 9.70355 4.20211 9.58379 3.81205 9.60114C3.42199 9.61849 3.05031 9.77183 2.76149 10.0346L0.550312 12.0461C-0.178822 12.7092 -0.179609 13.8563 0.548422 14.5206L6.52748 19.9754L0.548422 25.43C-0.179609 26.0944 -0.178822 27.2414 0.550312 27.9047L2.76149 29.916C3.05029 30.1788 3.42196 30.3321 3.81202 30.3495C4.20208 30.3669 4.58591 30.2472 4.89693 30.0111L11.7914 24.7776L27.6193 39.2177C27.864 39.4629 28.157 39.6544 28.4798 39.7801M30.1276 10.859L18.1179 19.9754L30.1276 29.0916V10.859Z" fill="white"/>
</mask>
<g mask="url(#mask1_422_81)">
<path d="M38.7643 35.719L30.49 39.703C30.0226 39.9278 29.497 40.0019 28.9857 39.915C28.4744 39.8282 28.0028 39.5845 27.636 39.2179L0.548718 14.5208C-0.179786 13.8565 -0.178841 12.7094 0.550607 12.0463L2.76321 10.0348C3.05228 9.77197 3.42419 9.6186 3.81448 9.60126C4.20476 9.58392 4.58882 9.70369 4.90006 9.93981L37.5193 34.6855C38.6136 35.5156 40.1854 34.7351 40.1854 33.3614V33.4576C40.1854 33.9301 40.052 34.393 39.8006 34.793C39.5492 35.193 39.19 35.514 38.7643 35.719Z" fill="#007ACC"/>
</g>
<mask id="mask2_422_81" style="mask-type:luminance" maskUnits="userSpaceOnUse" x="0" y="0" width="41" height="40">
<path d="M28.4798 39.7801C28.7993 39.9047 29.1411 39.9622 29.4838 39.9491C29.8265 39.9359 30.1629 39.8523 30.4719 39.7036L38.7398 35.7253C39.1656 35.5203 39.5249 35.1992 39.7763 34.799C40.0277 34.3989 40.1611 33.9358 40.161 33.4632V6.48749C40.1611 6.01492 40.0277 5.55193 39.7763 5.15179C39.5248 4.75165 39.1656 4.43061 38.7398 4.2256L30.472 0.247177C30.0049 0.0224443 29.4794 -0.0515353 28.9683 0.0354738C28.4572 0.122483 27.9858 0.36618 27.6193 0.732846L11.7914 15.173L4.89693 9.93962C4.58593 9.70355 4.20211 9.58379 3.81205 9.60114C3.42199 9.61849 3.05031 9.77183 2.76149 10.0346L0.550312 12.0461C-0.178822 12.7092 -0.179609 13.8563 0.548422 14.5206L6.52748 19.9754L0.548422 25.43C-0.179609 26.0944 -0.178822 27.2414 0.550312 27.9047L2.76149 29.916C3.05029 30.1788 3.42196 30.3321 3.81202 30.3495C4.20208 30.3669 4.58591 30.2472 4.89693 30.0111L11.7914 24.7776L27.6193 39.2177C27.864 39.4629 28.157 39.6544 28.4798 39.7801M30.1276 10.859L18.1179 19.9754L30.1276 29.0916V10.859Z" fill="white"/>
</mask>
<g mask="url(#mask2_422_81)">
<path d="M30.4637 39.7065C29.9963 39.9314 29.4705 40.0055 28.9592 39.9185C28.4478 39.8315 27.9762 39.5878 27.6094 39.221C28.5355 40.147 30.1193 39.4911 30.1193 38.1812V1.77564C30.1193 0.465723 28.5355 -0.190183 27.6094 0.735959C27.9761 0.369159 28.4478 0.125395 28.9592 0.0383875C29.4705 -0.0486203 29.9963 0.0254281 30.4637 0.25029L38.7366 4.22871C39.1626 4.43361 39.522 4.7546 39.7736 5.15475C40.0251 5.5549 40.1586 6.01795 40.1587 6.49061V33.4665C40.1587 34.4311 39.6059 35.3104 38.7366 35.7284L30.4637 39.7065Z" fill="#1F9CF0"/>
</g>
<mask id="mask3_422_81" style="mask-type:luminance" maskUnits="userSpaceOnUse" x="0" y="0" width="41" height="40">
<path d="M28.4798 39.7801C28.7993 39.9047 29.1411 39.9622 29.4838 39.9491C29.8265 39.9359 30.1629 39.8523 30.4719 39.7036L38.7398 35.7253C39.1656 35.5203 39.5249 35.1992 39.7763 34.799C40.0277 34.3989 40.1611 33.9358 40.161 33.4632V6.48749C40.1611 6.01492 40.0277 5.55193 39.7763 5.15179C39.5248 4.75165 39.1656 4.43061 38.7398 4.2256L30.472 0.247177C30.0049 0.0224443 29.4794 -0.0515353 28.9683 0.0354738C28.4572 0.122483 27.9858 0.36618 27.6193 0.732846L11.7914 15.173L4.89693 9.93962C4.58593 9.70355 4.20211 9.58379 3.81205 9.60114C3.42199 9.61849 3.05031 9.77183 2.76149 10.0346L0.550312 12.0461C-0.178822 12.7092 -0.179609 13.8563 0.548422 14.5206L6.52748 19.9754L0.548422 25.43C-0.179609 26.0944 -0.178822 27.2414 0.550312 27.9047L2.76149 29.916C3.05029 30.1788 3.42196 30.3321 3.81202 30.3495C4.20208 30.3669 4.58591 30.2472 4.89693 30.0111L11.7914 24.7776L27.6193 39.2177C27.864 39.4629 28.157 39.6544 28.4798 39.7801M30.1276 10.859L18.1179 19.9754L30.1276 29.0916V10.859Z" fill="white"/>
</mask>
<g mask="url(#mask3_422_81)">
<path d="M28.4798 39.7802C28.7993 39.9048 29.1411 39.9623 29.4838 39.9492C29.8265 39.936 30.1629 39.8524 30.4719 39.7037L38.7396 35.7252C39.1654 35.5202 39.5247 35.1992 39.7762 34.7991C40.0276 34.3989 40.161 33.9359 40.161 33.4633V6.4876C40.1611 6.01502 40.0277 5.55204 39.7763 5.1519C39.5248 4.75176 39.1656 4.43072 38.7398 4.22571L30.4717 0.247126C30.0046 0.0224293 29.4791 -0.0515307 28.9681 0.0354777C28.457 0.122486 27.9856 0.366162 27.6191 0.732795L11.7914 15.1731L4.89693 9.93972C4.58593 9.70365 4.20211 9.5839 3.81205 9.60125C3.42199 9.61859 3.05031 9.77194 2.76149 10.0347L0.550312 12.0462C-0.178822 12.7093 -0.179609 13.8564 0.548422 14.5207L6.52748 19.9755L0.548422 25.4301C-0.179609 26.0945 -0.178822 27.2415 0.550312 27.9048L2.76149 29.9161C3.05029 30.1789 3.42196 30.3322 3.81202 30.3496C4.20208 30.367 4.58591 30.2473 4.89693 30.0112L11.7914 24.7777L27.6191 39.2178C27.864 39.4628 28.1571 39.6543 28.4798 39.7802ZM30.1276 10.8589L18.1179 19.9755L30.1276 29.0917V10.8589Z" fill="url(#paint0_linear_422_81)" fill-opacity="0.25"/>
</g>
</g>
<defs>
<linearGradient id="paint0_linear_422_81" x1="2007.91" y1="0" x2="2007.91" y2="3995.1" gradientUnits="userSpaceOnUse">
<stop stop-color="white"/>
<stop offset="1" stop-color="white" stop-opacity="0"/>
</linearGradient>
<clipPath id="clip0_422_81">
<rect width="40.32" height="40" fill="white"/>
</clipPath>
</defs>
</svg>
