<svg width="49" height="48" viewBox="0 0 49 48" fill="none" xmlns="http://www.w3.org/2000/svg">
<path d="M0 17.3714C0 11.2909 0 8.25063 1.20801 5.9281C2.27061 3.8852 3.96614 2.22427 6.0516 1.18336C8.42252 0 11.5261 0 17.7333 0H31.2667C37.4739 0 40.5775 0 42.9484 1.18336C45.0338 2.22427 46.7294 3.8852 47.792 5.9281C49 8.25063 49 11.2909 49 17.3714V30.6286C49 36.7091 49 39.7494 47.792 42.0719C46.7294 44.1147 45.0338 45.7758 42.9484 46.8167C40.5775 48 37.4739 48 31.2667 48H17.7333C11.5261 48 8.42252 48 6.0516 46.8167C3.96614 45.7758 2.27061 44.1147 1.20801 42.0719C0 39.7494 0 36.7091 0 30.6286V17.3714Z" fill="#330000"/>
<path d="M23.7446 30.1656H16.1515L14.6066 34.9873C14.5636 35.1665 14.3953 35.2934 14.2121 35.2846H10.3662C10.1469 35.2846 10.0702 35.1636 10.1361 34.9213L16.7102 15.8986C16.776 15.7005 16.8418 15.4748 16.9075 15.2215C16.9935 14.781 17.0376 14.3331 17.039 13.884C17.0202 13.7514 17.1392 13.6342 17.2691 13.6528H22.4955C22.6486 13.6528 22.7363 13.7079 22.7584 13.818L30.2202 34.9543C30.2859 35.1747 30.2202 35.2848 30.0229 35.2846H25.7496C25.5998 35.3013 25.4567 35.2006 25.421 35.0534L23.7446 30.1656ZM17.3348 26.0044H22.5284C21.6751 23.1482 20.7121 20.3293 19.9316 17.4508C19.0895 20.3342 18.1707 23.206 17.3348 26.0044Z" fill="#FF9A00"/>
<path d="M34.6606 17.1528C34.3253 17.1664 33.991 17.1087 33.6795 16.9835C33.368 16.8583 33.0862 16.6684 32.8528 16.4263C32.6199 16.1738 32.4389 15.8774 32.3205 15.5543C32.202 15.2312 32.1483 14.8878 32.1623 14.5438C32.1504 14.2032 32.21 13.8639 32.3376 13.5482C32.465 13.2323 32.6573 12.947 32.902 12.7109C33.1442 12.4773 33.4303 12.2942 33.7434 12.1724C34.0565 12.0504 34.3905 11.9922 34.7263 12.0008C35.5152 12.0008 36.1344 12.2375 36.5835 12.7109C36.8103 12.957 36.9865 13.2454 37.1021 13.5599C37.2177 13.8744 37.2705 14.2088 37.2574 14.5438C37.271 14.8892 37.2156 15.2338 37.0942 15.5572C36.9728 15.8805 36.7879 16.1762 36.5506 16.4263C36.3026 16.6719 36.0066 16.8634 35.6813 16.9884C35.3561 17.1134 35.0085 17.1694 34.6606 17.1528ZM32.3924 34.9536V19.1674C32.3924 18.9693 32.4798 18.8702 32.6555 18.8702H36.6986C36.8737 18.8702 36.9614 18.9693 36.9615 19.1674V34.9536C36.9615 35.174 36.8739 35.2842 36.6986 35.2839H32.6883C32.4911 35.2839 32.3925 35.1739 32.3924 34.9536Z" fill="#FF9A00"/>
</svg>
