<svg width="60" height="48" viewBox="0 0 60 48" fill="none" xmlns="http://www.w3.org/2000/svg">
<path d="M12.4622 0C9.03867 0 6.50531 3.00924 6.61875 6.27268C6.72773 9.40784 6.58617 13.4687 5.56828 16.7802C4.54734 20.1013 2.82047 22.205 0 22.4753V25.5247C2.82047 25.795 4.54734 27.8987 5.56828 31.2201C6.58617 34.5315 6.72773 38.5919 6.61875 41.7273C6.50531 44.9903 9.03867 48 12.4627 48H47.5423C50.966 48 53.4987 44.9908 53.3852 41.7273C53.2765 38.5922 53.4178 34.5315 54.4357 31.2201C55.4573 27.8989 57.1795 25.7947 60 25.5247V22.4753C57.1795 22.205 55.4573 20.1013 54.4359 16.7802C53.4178 13.4692 53.2765 9.40808 53.3852 6.27268C53.4987 3.00971 50.966 0 47.5423 0H12.4622ZM40.6781 29.547C40.6781 34.0408 37.3406 36.7659 31.8019 36.7659H22.373C22.1033 36.7658 21.8447 36.6581 21.6541 36.4666C21.4634 36.2751 21.3563 36.0154 21.3563 35.7446V12.2554C21.3563 11.9845 21.4634 11.7247 21.6541 11.5331C21.8448 11.3416 22.1035 11.2339 22.3732 11.2339H31.748C36.3663 11.2339 39.3973 13.7465 39.3973 17.6038C39.3973 20.3112 37.3582 22.7351 34.7606 23.1595V23.3009C38.2971 23.6905 40.6781 26.1499 40.6781 29.547ZM30.7734 14.4714H25.3976V22.0975H29.9257C33.4259 22.0975 35.3562 20.682 35.3562 18.1517C35.3562 15.7808 33.6961 14.4714 30.7734 14.4714ZM25.3978 25.1234V33.5274H30.9717C34.6158 33.5274 36.5466 32.0589 36.5466 29.2989C36.5466 26.5385 34.5621 25.123 30.7373 25.123L25.3978 25.1234Z" fill="#7E13F8"/>
</svg>
