<svg width="45" height="48" viewBox="0 0 45 48" fill="none" xmlns="http://www.w3.org/2000/svg">
<path d="M4.09389 43.2017L0 0H45L40.9006 43.1949L22.4727 48L4.09389 43.2017Z" fill="#1572B6"/>
<path d="M22.498 44.3281L37.3899 40.4452L40.8932 3.5332H22.498V44.3281Z" fill="#33A9DC"/>
<path d="M22.498 19.1848H29.9531L30.4671 13.7591H22.498V8.46021H36.6243L36.4895 9.88135L35.106 24.4836H22.498V19.1848Z" fill="white"/>
<path d="M22.5361 32.9459L22.5106 32.9528L16.2367 31.3585L15.8357 27.1328H10.1797L10.9689 35.4522L22.5088 38.4659L22.5361 38.459V32.9459Z" fill="#EBEBEB"/>
<path d="M29.4845 24.259L28.8065 31.3545L22.5234 32.9487V38.4619L34.0724 35.4516L34.158 34.5568L35.1369 24.259H29.4845Z" fill="white"/>
<path d="M22.5276 8.46008V13.7589H8.91896L8.80595 12.5675L8.54895 9.88123L8.41406 8.46008H22.5276ZM22.5075 19.1847V24.4835H16.312L16.199 23.2921L15.9438 20.6058L15.809 19.1847H22.5075Z" fill="#EBEBEB"/>
</svg>
