<svg width="25" height="21" viewBox="0 0 25 21" fill="none" xmlns="http://www.w3.org/2000/svg">
<path d="M25 6.26V16.4375C25.0001 17.4752 24.6031 18.4735 23.8904 19.2278C23.1778 19.982 22.2035 20.435 21.1675 20.4938L20.9375 20.5H4.0625C3.02483 20.5001 2.02646 20.1031 1.27221 19.3904C0.517958 18.6778 0.0649983 17.7035 0.00625014 16.6675L0 16.4375V6.26L12.065 12.58C12.1992 12.6503 12.3485 12.687 12.5 12.687C12.6515 12.687 12.8008 12.6503 12.935 12.58L25 6.26ZM4.0625 0.5H20.9375C21.9445 0.499879 22.9156 0.873744 23.6625 1.54908C24.4095 2.22442 24.879 3.1531 24.98 4.155L12.5 10.6925L0.02 4.155C0.116904 3.19289 0.553812 2.2969 1.25219 1.62808C1.95056 0.959261 2.8646 0.561484 3.83 0.50625L4.0625 0.5Z" fill="black" fill-opacity="0.6"/>
</svg>
