<svg width="35" height="48" viewBox="0 0 35 48" fill="none" xmlns="http://www.w3.org/2000/svg">
<path fill-rule="evenodd" clip-rule="evenodd" d="M17.502 24.0004C17.502 19.5821 21.4191 16.0004 26.2513 16.0004C31.0835 16.0004 35.0007 19.5821 35.0007 24.0004C35.0007 28.4187 31.0835 32.0004 26.2513 32.0004C21.4191 32.0004 17.502 28.4187 17.502 24.0004Z" fill="#1ABCFE"/>
<path fill-rule="evenodd" clip-rule="evenodd" d="M0 40C0 35.5817 3.91723 32 8.74938 32H17.4988V40C17.4988 44.4183 13.5816 48 8.74938 48C3.91723 48 0 44.4183 0 40Z" fill="#0ACF83"/>
<path fill-rule="evenodd" clip-rule="evenodd" d="M17.502 0V16H26.2513C31.0835 16 35.0007 12.4183 35.0007 7.99999C35.0007 3.58172 31.0835 0 26.2513 0H17.502Z" fill="#FF7262"/>
<path fill-rule="evenodd" clip-rule="evenodd" d="M0 7.99999C0 12.4183 3.91723 16 8.74938 16H17.4988V0H8.74938C3.91723 0 0 3.58172 0 7.99999Z" fill="#F24E1E"/>
<path fill-rule="evenodd" clip-rule="evenodd" d="M0 24.0004C0 28.4187 3.91723 32.0003 8.74938 32.0003H17.4988V16.0004H8.74938C3.91723 16.0004 0 19.5821 0 24.0004Z" fill="#A259FF"/>
</svg>
