<svg width="49" height="48" viewBox="0 0 49 48" fill="none" xmlns="http://www.w3.org/2000/svg">
<path d="M40.8652 0H8.13477C3.64206 0 0 3.65921 0 8.17308V39.8269C0 44.3408 3.64206 48 8.13477 48H40.8652C45.3579 48 49 44.3408 49 39.8269V8.17308C49 3.65921 45.3579 0 40.8652 0Z" fill="#49021F"/>
<path d="M17.79 12.5566V33.5939C17.79 33.8142 17.6914 33.9243 17.4941 33.9243H13.5167C13.3411 33.9243 13.2535 33.8142 13.2539 33.5939V12.5566C13.2539 12.3806 13.3525 12.2925 13.5496 12.2924H17.5271C17.5605 12.2876 17.5946 12.2902 17.6269 12.3C17.6593 12.3099 17.6891 12.3266 17.7143 12.3492C17.7395 12.3718 17.7596 12.3996 17.773 12.4307C17.7865 12.4618 17.793 12.4956 17.7922 12.5295L17.79 12.5566ZM29.7694 34.2524L29.5577 34.2545C28.0448 34.2777 26.5457 33.9618 25.1695 33.3299C23.8875 32.7337 22.8157 31.7605 22.0961 30.5391C21.369 29.3258 20.9967 27.8136 20.9791 26.0026L20.9785 25.866C20.9662 24.3503 21.3517 22.858 22.0963 21.5397C22.8427 20.2328 23.9312 19.1565 25.2436 18.4276L25.3504 18.3691C26.7745 17.5765 28.4947 17.1802 30.5111 17.1802L30.5536 17.1804L30.648 17.1826L30.7548 17.1868L30.874 17.1929L31.0055 17.2012L31.1493 17.2118L31.4741 17.2385L31.5629 17.2462V10.7404C31.5629 10.5865 31.6286 10.5094 31.76 10.5091H35.9019C35.9287 10.5052 35.956 10.5077 35.9816 10.5163C36.0073 10.5249 36.0306 10.5394 36.0498 10.5586C36.0689 10.5778 36.0833 10.6012 36.0919 10.627C36.1004 10.6528 36.1029 10.6803 36.099 10.7072V30.2254C36.1003 30.6332 36.1168 31.0408 36.1484 31.4474L36.1794 31.8731L36.2068 32.2695L36.2305 32.6362C36.2346 32.7048 36.2179 32.7731 36.1828 32.832C36.1476 32.891 36.0955 32.9379 36.0334 32.9666C34.9649 33.4142 33.8519 33.7463 32.7134 33.9572C31.742 34.1375 30.7573 34.2362 29.7696 34.2524M31.5631 30.1593V21.1433C31.3854 21.095 31.204 21.0618 31.0208 21.0443C30.7969 21.0216 30.5719 21.0105 30.3469 21.0112C29.5491 21.0033 28.7609 21.1843 28.046 21.5397C27.3497 21.8877 26.7551 22.4111 26.3203 23.0589C25.8708 23.7193 25.6462 24.589 25.6463 25.6679C25.6304 26.3878 25.7474 27.1044 25.9914 27.7814C26.1901 28.327 26.5041 28.8228 26.9119 29.2347C27.3022 29.6136 27.7749 29.8962 28.2925 30.0602C28.8392 30.238 29.4107 30.3273 29.9853 30.3247C30.2919 30.3247 30.5768 30.3136 30.8399 30.2914C31.0498 30.2755 31.2579 30.2408 31.4616 30.1876L31.5631 30.1593Z" fill="#FF3366"/>
</svg>
