<svg width="51" height="48" viewBox="0 0 51 48" fill="none" xmlns="http://www.w3.org/2000/svg">
<path d="M3.23872 11.2731C-1.27658 17.6132 -0.71447 25.8628 2.73474 32.6001C2.81663 32.7617 2.9026 32.9205 2.98735 33.0793L3.14865 33.3829L3.24936 33.5577L3.42909 33.8721C3.53635 34.0563 3.64607 34.2402 3.75825 34.4236L3.94617 34.726C4.07062 34.922 4.19795 35.1167 4.32814 35.31L4.49108 35.5556C4.67081 35.8176 4.85463 36.0792 5.04459 36.3359L5.06056 36.3559L5.1539 36.4791C5.31848 36.7005 5.48661 36.919 5.65829 37.1347L5.84825 37.3707C6.00109 37.5582 6.15639 37.7447 6.31415 37.9303L6.49224 38.1383C6.70469 38.3832 6.92116 38.6249 7.14155 38.863L7.15506 38.8762L7.18003 38.9034C7.39661 39.1331 7.61662 39.3596 7.83999 39.583L8.05165 39.7914C8.22497 39.9615 8.4006 40.1298 8.57855 40.2962L8.79431 40.4962C9.03149 40.7148 9.27222 40.9291 9.51649 41.1389L9.52796 41.1477L9.65364 41.2525C9.86981 41.4355 10.0886 41.6158 10.3099 41.7937L10.5818 42.0053C10.7624 42.1469 10.9448 42.2861 11.1287 42.4229L11.421 42.6401C11.6241 42.7862 11.8287 42.9295 12.0347 43.07L12.2583 43.2248L12.3197 43.2676C12.5154 43.3992 12.7156 43.526 12.9158 43.6528L13.1737 43.8208C13.4807 44.0104 13.7919 44.198 14.1067 44.3792L14.3646 44.5212C14.5958 44.6518 14.8292 44.7797 15.0647 44.9048C15.1924 44.972 15.3235 45.0355 15.452 45.0999C15.6186 45.1851 15.784 45.2715 15.9535 45.3543L16.0694 45.4091L16.2745 45.5059C16.5368 45.6286 16.8015 45.7482 17.0687 45.8647L17.2366 45.9383C17.543 46.0693 17.8519 46.1948 18.1631 46.3147L18.3886 46.4015C18.6769 46.5099 18.9692 46.6171 19.2627 46.7179L19.3724 46.7551C19.6946 46.8651 20.0197 46.9671 20.3472 47.0667L20.5826 47.1355C20.9159 47.2335 21.2455 47.3506 21.5889 47.4126C43.4261 51.3033 49.7693 34.592 49.7693 34.592C44.4418 41.3729 34.9854 43.1616 26.0256 41.1701C25.6862 41.0953 25.3571 40.9917 25.0259 40.8961L24.7766 40.8221C24.4538 40.7255 24.1328 40.6235 23.8136 40.5162L23.6814 40.4694C23.3968 40.3711 23.1137 40.2685 22.8323 40.1618L22.594 40.0702C22.2856 39.9515 21.9801 39.8274 21.6774 39.6978L21.4944 39.6186C21.2353 39.5042 20.9774 39.387 20.721 39.267L20.4975 39.1622C20.2965 39.0666 20.0975 38.965 19.8993 38.865C19.7667 38.7966 19.6316 38.7322 19.5002 38.661C19.259 38.5341 19.02 38.4031 18.7833 38.2683L18.5414 38.1363C18.2271 37.955 17.9159 37.7688 17.6079 37.5775L17.3561 37.4135C17.1322 37.2732 16.9107 37.1293 16.6917 36.9819L16.478 36.8351C16.267 36.6894 16.0577 36.5416 15.8499 36.3915L15.572 36.186C15.3811 36.0442 15.1922 35.8999 15.0053 35.7532L14.7527 35.5552C14.5148 35.3646 14.2795 35.1708 14.0469 34.974L13.9696 34.9104C13.719 34.6944 13.4717 34.4747 13.2277 34.2516L13.0185 34.0552C12.838 33.8873 12.6603 33.7181 12.4855 33.5445L12.2767 33.3409C12.0548 33.1191 11.8367 32.8937 11.6225 32.6649L11.5901 32.6313C11.3643 32.3894 11.1431 32.1435 10.9265 31.8937L10.7529 31.6922C10.5911 31.5019 10.4318 31.3097 10.2751 31.1154L10.1003 30.9026C9.91297 30.666 9.72913 30.4268 9.54884 30.185C4.5746 23.5557 2.78715 14.4129 6.76285 6.90449M17.2554 5.93093C13.9896 10.5219 14.1673 16.668 16.7146 21.5234C17.1414 22.3394 17.6239 23.1263 18.159 23.8789C18.6482 24.5641 19.1907 25.3792 19.84 25.9296C20.0774 26.1837 20.3218 26.4315 20.5728 26.6728L20.766 26.8588C21.0099 27.091 21.2594 27.3174 21.5144 27.5379L21.5447 27.5635L21.5521 27.5707C21.8373 27.8135 22.1288 28.0491 22.4262 28.2775L22.6247 28.4287C22.9237 28.6537 23.2285 28.8713 23.5389 29.0811L23.5655 29.1007C23.7031 29.1935 23.8431 29.2799 23.9827 29.3695L24.1805 29.4971C24.4032 29.637 24.629 29.7724 24.858 29.903L24.9542 29.9574C25.1524 30.0689 25.352 30.178 25.5532 30.2846L25.7665 30.393C25.9053 30.4638 26.0441 30.5362 26.1853 30.605L26.2488 30.633C26.5366 30.7714 26.8268 30.905 27.1232 31.031L27.3165 31.1086C27.5535 31.207 27.793 31.303 28.0329 31.3926L28.34 31.5026C28.5582 31.5818 28.7772 31.6538 28.9979 31.7262L29.2955 31.8194C29.6095 31.9145 29.9199 32.0349 30.247 32.0881C47.1074 34.8172 51 22.1342 51 22.1342C47.4914 27.0712 40.6962 29.4271 33.4452 27.5879C33.1247 27.5056 32.8062 27.4158 32.4901 27.3184L32.2031 27.2276C31.9791 27.1568 31.7565 27.0819 31.5354 27.0028L31.2341 26.8932C30.9928 26.8027 30.7531 26.7083 30.5151 26.61L30.3215 26.53C30.025 26.4039 29.7318 26.2706 29.4421 26.1304C29.2935 26.0596 29.1473 25.9848 29.0008 25.9112L28.7461 25.7832C28.5583 25.6837 28.3723 25.5811 28.1881 25.4752L28.0546 25.4012C27.8266 25.2713 27.6012 25.1369 27.3787 24.9981L27.1748 24.8653C27.028 24.7725 26.8821 24.6782 26.7372 24.5825C26.4282 24.3725 26.1243 24.1554 25.8258 23.9313L25.6207 23.7733C22.4471 21.3254 19.9309 17.9792 18.735 14.1854C17.4814 10.2511 17.7516 5.83453 19.9235 2.2499M29.0442 1.93991C27.1192 4.70779 26.93 8.14523 28.2659 11.2019C29.6746 14.4469 32.5609 16.992 35.9299 18.1996C36.0687 18.2496 36.2079 18.2944 36.3483 18.3412L36.5329 18.3984C36.7315 18.4592 36.9284 18.53 37.1335 18.568C46.4433 20.3255 48.9685 13.9006 49.6404 12.9546C47.4288 16.0661 43.7114 16.8128 39.1503 15.7313C38.79 15.6461 38.3941 15.5189 38.0469 15.3985C37.6009 15.2439 37.1634 15.0664 36.7364 14.8669C35.9258 14.4863 35.1561 14.0275 34.4389 13.4974C30.3575 10.4715 27.8221 4.70019 30.4853 0" fill="#0868AC"/>
</svg>
