<svg width="49" height="48" viewBox="0 0 49 48" fill="none" xmlns="http://www.w3.org/2000/svg">
<path d="M37.5156 0H11.4844C5.14173 0 0 5.0368 0 11.25V36.75C0 42.9632 5.14173 48 11.4844 48H37.5156C43.8583 48 49 42.9632 49 36.75V11.25C49 5.0368 43.8583 0 37.5156 0Z" fill="#F0DB4F"/>
<path d="M12.883 40.1124L16.6327 37.8894C17.3562 39.1458 18.0142 40.2089 19.5927 40.2089C21.1058 40.2089 22.0598 39.6292 22.0598 37.3739V22.0368H26.6646V37.4377C26.6646 42.1096 23.869 44.2362 19.7901 44.2362C16.1065 44.2362 13.9683 42.3674 12.8828 40.112M29.1657 39.629L32.915 37.5026C33.9021 39.0815 35.1849 40.2414 37.4542 40.2414C39.3623 40.2414 40.5789 39.3069 40.5789 38.018C40.5789 36.4715 39.329 35.9236 37.2239 35.0217L36.073 34.5382C32.7508 33.1529 30.5469 31.4129 30.5469 27.7398C30.5469 24.3566 33.1784 21.7788 37.29 21.7788C40.2173 21.7788 42.3224 22.7778 43.8353 25.3876L40.2501 27.6431C39.4605 26.2576 38.6057 25.7099 37.29 25.7099C35.9413 25.7099 35.0861 26.5477 35.0861 27.6431C35.0861 28.9962 35.9413 29.5441 37.9147 30.3821L39.0658 30.8652C42.9799 32.5087 45.1838 34.1838 45.1838 37.9535C45.1838 42.0136 41.9276 44.2366 37.553 44.2366C33.2771 44.2366 30.5142 42.239 29.1657 39.629Z" fill="#323330"/>
</svg>
