<svg width="20" height="21" viewBox="0 0 20 21" fill="none" xmlns="http://www.w3.org/2000/svg">
<path d="M4.97261 0.500001C4.51622 0.499726 4.0651 0.597458 3.64975 0.786588C3.2344 0.975717 2.8645 1.25183 2.56508 1.59626C0.2913 3.87504 -0.376208 6.43882 0.191299 9.0176C0.741305 11.5114 2.41383 13.8839 4.51135 15.9827C6.61137 18.0815 8.98265 19.7552 11.4739 20.3065C14.0515 20.8765 16.6177 20.2152 18.899 17.9502C19.2447 17.6504 19.522 17.2798 19.7121 16.8635C19.9021 16.4472 20.0005 15.995 20.0007 15.5373C20.0008 15.0797 19.9026 14.6274 19.7127 14.211C19.5229 13.7947 19.2458 13.4239 18.9003 13.1239L17.3878 11.6114C16.7573 10.9816 15.9026 10.6279 15.0115 10.6279C14.1204 10.6279 13.2657 10.9816 12.6352 11.6114L11.8639 12.3839C11.7704 12.4775 11.6593 12.5517 11.537 12.6024C11.4148 12.653 11.2838 12.6791 11.1514 12.6791C11.0191 12.6791 10.8881 12.653 10.7658 12.6024C10.6436 12.5517 10.5325 12.4775 10.4389 12.3839L8.12139 10.0651C7.9327 9.876 7.82673 9.61976 7.82673 9.3526C7.82673 9.08545 7.9327 8.82921 8.12139 8.6401L8.8939 7.86509C9.52403 7.23455 9.878 6.37961 9.878 5.48818C9.878 4.59676 9.52403 3.74182 8.8939 3.11128L7.38138 1.59751C7.08141 1.25333 6.71126 0.97732 6.29579 0.788021C5.88033 0.598722 5.42916 0.500516 4.97261 0.500001Z" fill="black" fill-opacity="0.6"/>
</svg>
