<svg width="49" height="48" viewBox="0 0 49 48" fill="none" xmlns="http://www.w3.org/2000/svg">
<path d="M0 17.3714C0 11.2909 0 8.25063 1.20801 5.9281C2.27061 3.8852 3.96614 2.22427 6.0516 1.18336C8.42252 0 11.5261 0 17.7333 0H31.2667C37.4739 0 40.5775 0 42.9484 1.18336C45.0338 2.22427 46.7294 3.8852 47.792 5.9281C49 8.25063 49 11.2909 49 17.3714V30.6286C49 36.7091 49 39.7494 47.792 42.0719C46.7294 44.1147 45.0338 45.7758 42.9484 46.8167C40.5775 48 37.4739 48 31.2667 48H17.7333C11.5261 48 8.42252 48 6.0516 46.8167C3.96614 45.7758 2.27061 44.1147 1.20801 42.0719C0 39.7494 0 36.7091 0 30.6286V17.3714Z" fill="#001E36"/>
<path d="M10.5039 35.1715V14.0638C10.5039 13.9202 10.5652 13.8382 10.7081 13.8382C12.8179 13.8382 14.9269 13.7151 17.0372 13.7151C20.4616 13.7151 24.1697 14.8621 25.4693 18.3715C25.7756 19.233 25.9389 20.1151 25.9389 21.0382C25.9389 22.8023 25.5306 24.2586 24.7139 25.4074C22.4326 28.6162 18.4787 28.5664 14.9343 28.5664V35.151C14.9621 35.3459 14.7925 35.4382 14.6281 35.4382H10.7489C10.5856 35.4382 10.5039 35.3561 10.5039 35.1715ZM14.9547 17.7971V24.6895C16.3601 24.7903 17.8307 24.8013 19.181 24.3613C20.6716 23.94 21.4881 22.6759 21.4881 21.1613C21.5295 19.8705 20.8115 18.6321 19.5893 18.1664C18.2552 17.623 16.3948 17.5904 14.9547 17.7971Z" fill="#31A8FF"/>
<path d="M38.6735 23.3271C38.0558 23.0082 37.3978 22.7749 36.7177 22.6335C35.8437 22.432 32.3965 21.7266 32.3952 23.4922C32.4258 24.478 34.0232 24.9609 34.7289 25.2425C37.2067 26.0758 40.0105 27.5654 39.9555 30.5597C40.0312 34.2872 36.3444 35.7774 33.184 35.7778C31.5388 35.7944 29.8248 35.5448 28.3191 34.853C28.1754 34.7784 28.0829 34.6191 28.0891 34.4567V30.89C28.0728 30.7469 28.2295 30.622 28.352 30.7248C29.8273 31.5988 31.576 32.0231 33.2826 32.0459C34.036 32.0459 35.5292 31.9743 35.5179 30.89C35.5179 29.8493 33.7316 29.3709 33.0196 29.1066C31.9876 28.7456 31.0089 28.2456 30.1105 27.6204C28.8552 26.7432 28.0676 25.3367 28.0891 23.7894C28.0817 20.2796 31.4754 18.7043 34.5317 18.7035C35.9606 18.6919 37.4948 18.7956 38.825 19.364C39.0162 19.4191 39.0558 19.6165 39.055 19.7933V23.1289C39.0672 23.3359 38.8324 23.4064 38.6735 23.3271Z" fill="#31A8FF"/>
</svg>
