<svg width="49" height="48" viewBox="0 0 49 48" fill="none" xmlns="http://www.w3.org/2000/svg">
<path d="M37.3575 3.5666C44.3443 7.79431 49 15.3645 49 24C49 37.2548 38.031 48 24.5 48C21.5493 48 18.7204 47.489 16.1013 46.5517L15.8215 46.4496L16.2772 46.3063L16.8629 46.1181L17.1518 46.0235L17.4382 45.9287L18.0032 45.738L18.5579 45.5461L19.1022 45.3529L19.6362 45.1585L19.8993 45.0607L20.4177 44.8643C20.9653 44.6542 21.4951 44.4417 22.0074 44.227L22.3883 44.0656L22.8551 43.8625C23.0603 43.772 23.2624 43.681 23.4615 43.5896L23.7578 43.4523L24.1937 43.2451L24.4078 43.141L24.6192 43.0365L25.0345 42.8265C28.5202 41.0354 30.8885 39.0896 32.1459 36.9562C34.81 32.4361 32.4833 27.6057 25.8041 22.6812L25.2605 22.282L24.9303 22.0339L24.6098 21.7878L24.2988 21.5435L23.9973 21.3011L23.8502 21.1806L23.7054 21.0605L23.4229 20.8218L23.2173 20.644L23.017 20.4673L22.7581 20.2331L22.5085 20.0009L22.2683 19.7704L22.1517 19.6558L22.0374 19.5417L21.8158 19.3149C19.1755 16.5654 18.5859 14.2116 19.7846 12.1778C20.3946 11.1427 21.4523 10.125 22.9558 9.13386L23.1384 9.01505L23.4258 8.83384C23.5558 8.75344 23.6888 8.67322 23.8247 8.59319L24.0308 8.47329L24.3483 8.29397L24.6758 8.11531L24.928 7.98174L25.1858 7.84856L25.5382 7.67159C25.8063 7.53912 26.0829 7.40724 26.3678 7.27597L26.6556 7.14491L27.048 6.97081L27.2479 6.88403L27.6553 6.71106L27.8627 6.62485L28.2851 6.45303L28.5 6.36741L28.9373 6.19678L29.1597 6.11176L29.6119 5.94233L30.0741 5.77373L30.309 5.68974L30.7861 5.52239L31.2732 5.3559L31.7703 5.19028L32.0225 5.1078L32.5345 4.9435L33.0565 4.7801L33.5884 4.61761L34.1302 4.45605L34.682 4.29542L35.3856 4.09597L36.1049 3.89803L36.9884 3.66252L37.3575 3.5666ZM24.5 0C27.4794 0 30.3347 0.520982 32.9759 1.47502L33.2581 1.57889L33.0792 1.63195L32.2065 1.89545L31.9208 1.98397L31.357 2.16203L30.8035 2.34148L30.2603 2.52233L29.7273 2.7046L29.2047 2.88828L28.9472 2.98067L28.3147 3.2132L27.6982 3.44802L27.2166 3.63753L26.9796 3.73284L26.5134 3.92459C21.7485 5.91374 18.6257 8.1441 17.1324 10.6778C14.526 15.1001 16.89 19.8674 23.5699 24.7906L24.1134 25.1898L24.4435 25.438L24.7639 25.6844L24.9204 25.807L25.2264 26.0507L25.4496 26.2324L25.6673 26.4131L25.9494 26.6525L26.0868 26.7716L26.3546 27.0084C26.5007 27.1395 26.6424 27.2698 26.7798 27.3994L26.9826 27.5931L27.2746 27.8814L27.552 28.1671C30.181 30.9358 30.743 33.3366 29.4937 35.4562C28.6853 36.8278 27.1419 38.178 24.8671 39.4887L24.6583 39.6078L24.3198 39.7956L23.9713 39.9828C23.7749 40.0867 23.5738 40.1903 23.3681 40.2936L23.0559 40.4484L22.6722 40.6336L22.2783 40.8182L21.8745 41.0021L21.6687 41.0938L21.2498 41.2768L20.8207 41.4591L20.3816 41.6407L20.1583 41.7313L19.7041 41.9119L19.4733 42.002L19.2399 42.0918L18.7657 42.271L18.2814 42.4495L17.787 42.6272L17.2826 42.8042L16.7682 42.9805L16.5073 43.0683L15.9778 43.2434L15.7093 43.3306L15.1648 43.5045L14.6102 43.6775L13.903 43.8927L13.18 44.1066L12.5904 44.2767L11.7675 44.5086C4.71136 40.2958 0 32.6869 0 24C0 10.7452 10.969 0 24.5 0Z" fill="#0080FF"/>
</svg>
