<svg width="50" height="48" viewBox="0 0 50 48" fill="none" xmlns="http://www.w3.org/2000/svg">
<mask id="mask0_233_154" style="mask-type:luminance" maskUnits="userSpaceOnUse" x="0" y="0" width="50" height="48">
<path d="M35.0261 47.7361C35.4191 47.8857 35.8394 47.9547 36.261 47.9389C36.6825 47.9231 37.0962 47.8228 37.4763 47.6443L47.6457 42.8703C48.1694 42.6243 48.6114 42.239 48.9206 41.7588C49.2299 41.2786 49.3939 40.723 49.3938 40.1559V7.78499C49.3939 7.2179 49.2298 6.66232 48.9206 6.18215C48.6113 5.70198 48.1694 5.31673 47.6457 5.07072L37.4765 0.296612C36.9019 0.0269331 36.2556 -0.0618424 35.6269 0.0425686C34.9983 0.14698 34.4185 0.439415 33.9677 0.879416L14.4997 18.2076L6.01954 11.9275C5.63702 11.6443 5.16492 11.5006 4.68515 11.5214C4.20539 11.5422 3.74822 11.7262 3.39299 12.0415L0.673272 14.4553C-0.223552 15.2511 -0.22452 16.6276 0.670947 17.4247L8.02509 23.9704L0.670947 30.516C-0.22452 31.3133 -0.223552 32.6896 0.673272 33.4856L3.39299 35.8992C3.7482 36.2145 4.20535 36.3986 4.68512 36.4194C5.16489 36.4403 5.637 36.2966 6.01954 36.0133L14.4997 29.7331L33.9677 47.0613C34.2687 47.3554 34.6291 47.5852 35.0261 47.7361ZM37.0529 13.0308L22.2811 23.9704L37.0529 34.9099V13.0308Z" fill="white"/>
</mask>
<g mask="url(#mask0_233_154)">
<path d="M47.6759 5.07824L37.4986 0.297518C36.9238 0.0275373 36.2773 -0.0614735 35.6483 0.0428035C35.0194 0.14708 34.4393 0.439489 33.9882 0.879565L0.671311 30.5162C-0.224738 31.3135 -0.223576 32.6898 0.673635 33.4857L3.3951 35.8993C3.75063 36.2147 4.20806 36.3988 4.68811 36.4197C5.16816 36.4405 5.64055 36.2968 6.02339 36.0135L46.1445 6.31849C47.4905 5.3224 49.4238 6.25897 49.4238 7.90722V7.79194C49.4238 7.22497 49.2597 6.66952 48.9505 6.18947C48.6413 5.70941 48.1995 5.32424 47.6759 5.07824Z" fill="#0065A9"/>
</g>
<mask id="mask1_233_154" style="mask-type:luminance" maskUnits="userSpaceOnUse" x="0" y="0" width="50" height="48">
<path d="M35.0261 47.7361C35.4191 47.8857 35.8394 47.9547 36.261 47.9389C36.6825 47.9231 37.0962 47.8228 37.4763 47.6443L47.6457 42.8703C48.1694 42.6243 48.6114 42.239 48.9206 41.7588C49.2299 41.2786 49.3939 40.723 49.3938 40.1559V7.78499C49.3939 7.2179 49.2298 6.66232 48.9206 6.18215C48.6113 5.70198 48.1694 5.31673 47.6457 5.07072L37.4765 0.296612C36.9019 0.0269331 36.2556 -0.0618424 35.6269 0.0425686C34.9983 0.14698 34.4185 0.439415 33.9677 0.879416L14.4997 18.2076L6.01954 11.9275C5.63702 11.6443 5.16492 11.5006 4.68515 11.5214C4.20539 11.5422 3.74822 11.7262 3.39299 12.0415L0.673272 14.4553C-0.223552 15.2511 -0.22452 16.6276 0.670947 17.4247L8.02509 23.9704L0.670947 30.516C-0.22452 31.3133 -0.223552 32.6896 0.673272 33.4856L3.39299 35.8992C3.7482 36.2145 4.20535 36.3986 4.68512 36.4194C5.16489 36.4403 5.637 36.2966 6.01954 36.0133L14.4997 29.7331L33.9677 47.0613C34.2687 47.3554 34.6291 47.5852 35.0261 47.7361ZM37.0529 13.0308L22.2811 23.9704L37.0529 34.9099V13.0308Z" fill="white"/>
</mask>
<g mask="url(#mask1_233_154)">
<path d="M47.6759 42.8622L37.4986 47.6429C36.9238 47.9128 36.2773 48.0017 35.6484 47.8974C35.0195 47.7932 34.4394 47.5008 33.9882 47.0609L0.671311 17.4243C-0.224738 16.6272 -0.223576 15.2507 0.673635 14.4549L3.3951 12.0411C3.75065 11.7258 4.2081 11.5417 4.68815 11.5209C5.16819 11.5001 5.64057 11.6438 6.02339 11.9272L46.1445 41.622C47.4905 42.6181 49.4238 41.6815 49.4238 40.033V40.1485C49.4238 40.7155 49.2597 41.2709 48.9505 41.751C48.6413 42.231 48.1995 42.6162 47.6759 42.8622Z" fill="#007ACC"/>
</g>
<mask id="mask2_233_154" style="mask-type:luminance" maskUnits="userSpaceOnUse" x="0" y="0" width="49" height="48">
<path d="M34.7468 47.7948C35.1367 47.9445 35.5537 48.0136 35.9719 47.9978C36.3901 47.982 36.8005 47.8816 37.1775 47.7028L47.2658 42.923C47.7854 42.6767 48.2238 42.291 48.5306 41.8102C48.8374 41.3294 49.0001 40.7731 49 40.2052V7.79456C49 7.22677 48.8373 6.6705 48.5305 6.18975C48.2237 5.70899 47.7854 5.32327 47.2658 5.07695L37.1777 0.296977C36.6077 0.0269662 35.9665 -0.0619184 35.3429 0.0426209C34.7193 0.14716 34.1441 0.439955 33.6969 0.880496L14.384 18.23L5.97154 11.9422C5.59208 11.6586 5.12374 11.5147 4.6478 11.5355C4.17186 11.5564 3.71834 11.7406 3.36594 12.0563L0.667904 14.4731C-0.221769 15.2698 -0.22273 16.648 0.665598 17.4461L7.96111 23.9999L0.665598 30.5535C-0.22273 31.3518 -0.221769 32.7298 0.667904 33.5267L3.36594 35.9433C3.71832 36.259 4.17182 36.4433 4.64776 36.4642C5.12371 36.4851 5.59205 36.3412 5.97154 36.0576L14.384 29.7696L33.6969 47.1191C33.9954 47.4136 34.353 47.6437 34.7468 47.7948M36.7575 13.0468L22.1034 23.9999L36.7575 34.9528V13.0468Z" fill="white"/>
</mask>
<g mask="url(#mask2_233_154)">
<path d="M37.1586 47.7046C36.5882 47.9747 35.9467 48.0637 35.3228 47.9592C34.6989 47.8547 34.1233 47.5619 33.6758 47.1212C34.8058 48.2338 36.7383 47.4457 36.7383 45.8719V2.13158C36.7383 0.557743 34.8058 -0.230311 33.6758 0.882425C34.1233 0.441724 34.6988 0.148848 35.3228 0.0443107C35.9467 -0.060227 36.5882 0.0287403 37.1586 0.298906L47.253 5.07888C47.7727 5.32506 48.2113 5.71073 48.5183 6.19149C48.8252 6.67226 48.9881 7.2286 48.9881 7.79649V40.2073C48.9881 41.3663 48.3137 42.4228 47.253 42.925L37.1586 47.7046Z" fill="#1F9CF0"/>
</g>
</svg>
