<svg width="40" height="40" viewBox="0 0 40 40" fill="none" xmlns="http://www.w3.org/2000/svg">
<path d="M32.5765 29.923C32.9287 30.2752 33.1266 30.753 33.1266 31.2511C33.1266 31.7492 32.9287 32.227 32.5765 32.5792C32.2243 32.9315 31.7465 33.1294 31.2484 33.1294C30.7502 33.1294 30.2725 32.9315 29.9202 32.5792L19.9999 22.6558L10.0765 32.5761C9.72425 32.9283 9.24651 33.1262 8.74837 33.1262C8.25023 33.1262 7.77249 32.9283 7.42024 32.5761C7.068 32.2239 6.87012 31.7461 6.87012 31.248C6.87012 30.7498 7.068 30.2721 7.42024 29.9199L17.3437 19.9995L7.42337 10.0761C7.07113 9.72386 6.87324 9.24612 6.87324 8.74798C6.87324 8.24984 7.07113 7.77209 7.42337 7.41985C7.77561 7.06761 8.25335 6.86973 8.75149 6.86973C9.24964 6.86973 9.72738 7.06761 10.0796 7.41985L19.9999 17.3433L29.9234 7.41829C30.2756 7.06605 30.7533 6.86816 31.2515 6.86816C31.7496 6.86816 32.2274 7.06605 32.5796 7.41829C32.9319 7.77053 33.1297 8.24827 33.1297 8.74642C33.1297 9.24456 32.9319 9.7223 32.5796 10.0745L22.6562 19.9995L32.5765 29.923Z" fill="black"/>
</svg>
